<svg xmlns="http://www.w3.org/2000/svg" xmlns:xlink="http://www.w3.org/1999/xlink" width="210mm" height="297mm" viewBox="0 0 210 297"><defs><linearGradient xlink:href="#a" id="b" x1="124.197" x2="218.146" y1="146.045" y2="153.061" gradientTransform="matrix(2.52154 0 0 2.52154 -348.468 -211.72)" gradientUnits="userSpaceOnUse"/><linearGradient id="a"><stop offset=".305" style="stop-color:#3a5068;stop-opacity:1"/><stop offset="1" style="stop-color:#7896b6;stop-opacity:.91194969"/></linearGradient></defs><path d="M37.856 55.151v189.212h6.773V55.15Zm13.85 0v189.212h59.273c35.494 0 58.444-22.15 58.444-52.841 0-23.485-14.944-40.298-33.358-44.835 15.745-5.337 27.488-21.082 27.488-40.564 0-25.232-15.379-44.747-43.085-49.731a25.862 19.817 0 0 1-25.733 18.43A25.862 19.817 0 0 1 68.887 55.15ZM74.15 86.107h25.887c17.88 0 27.22 9.074 27.22 23.485s-10.14 23.752-26.954 23.752H74.15Zm0 77.66h30.423c18.414 0 28.022 10.409 28.022 25.353 0 15.212-10.674 24.552-28.555 24.552H74.15Z" style="font-style:normal;font-variant:normal;font-weight:700;font-stretch:normal;font-size:105.837px;font-family:&quot;Circular Std Bold&quot;;-inkscape-font-specification:&quot;Circular Std Bold, Bold @wght=331&quot;;font-variation-settings:&quot;wght&quot;331;display:inline;fill:url(#b);fill-opacity:1;stroke:#245092;stroke-width:2.42965;stroke-linecap:round;stroke-linejoin:round;stroke-miterlimit:3.8;stroke-opacity:0;paint-order:fill markers stroke"/></svg>