<?xml version="1.0" encoding="UTF-8" standalone="no"?>
<!-- Created with Inkscape (http://www.inkscape.org/) -->

<svg
   width="210mm"
   height="297mm"
   viewBox="0 0 210 297"
   version="1.1"
   id="svg26611"
   inkscape:export-filename="bitmap.png"
   inkscape:export-xdpi="96"
   inkscape:export-ydpi="96"
   inkscape:version="1.2.1 (9c6d41e410, 2022-07-14)"
   sodipodi:docname="B-loading.svg"
   xmlns:inkscape="http://www.inkscape.org/namespaces/inkscape"
   xmlns:sodipodi="http://sodipodi.sourceforge.net/DTD/sodipodi-0.dtd"
   xmlns:xlink="http://www.w3.org/1999/xlink"
   xmlns="http://www.w3.org/2000/svg"
   xmlns:svg="http://www.w3.org/2000/svg">
  <sodipodi:namedview
     id="namedview26613"
     pagecolor="#ffffff"
     bordercolor="#000000"
     borderopacity="0.25"
     inkscape:showpageshadow="2"
     inkscape:pageopacity="0.0"
     inkscape:pagecheckerboard="0"
     inkscape:deskcolor="#d1d1d1"
     inkscape:document-units="mm"
     showgrid="false"
     inkscape:zoom="0.73673541"
     inkscape:cx="335.26283"
     inkscape:cy="454.03003"
     inkscape:window-width="1920"
     inkscape:window-height="1002"
     inkscape:window-x="-8"
     inkscape:window-y="-8"
     inkscape:window-maximized="1"
     inkscape:current-layer="layer1" />
  <defs
     id="defs26608">
    <linearGradient
       inkscape:collect="always"
       xlink:href="#linearGradient14941"
       id="linearGradient14943"
       x1="124.19698"
       y1="146.04498"
       x2="218.14642"
       y2="153.06082"
       gradientUnits="userSpaceOnUse"
       gradientTransform="matrix(2.5215369,0,0,2.5215369,-348.46785,-211.71947)" />
    <linearGradient
       inkscape:collect="always"
       id="linearGradient14941">
      <stop
         style="stop-color:#3a5068;stop-opacity:1;"
         offset="0.30546623"
         id="stop14937" />
      <stop
         style="stop-color:#7896b6;stop-opacity:0.91194969;"
         offset="1"
         id="stop14939" />
    </linearGradient>
  </defs>
  <g
     inkscape:label="Layer 1"
     inkscape:groupmode="layer"
     id="layer1">
    <path
       id="text14654"
       style="font-style:normal;font-variant:normal;font-weight:bold;font-stretch:normal;font-size:105.837px;font-family:'Circular Std Bold';-inkscape-font-specification:'Circular Std Bold,  Bold @wght=331';font-variation-settings:'wght' 331;display:inline;fill:url(#linearGradient14943);fill-opacity:1;stroke:#245092;stroke-width:2.42965;stroke-linecap:round;stroke-linejoin:round;stroke-miterlimit:3.8;stroke-opacity:0;paint-order:fill markers stroke"
       d="M 37.856245,55.151008 V 244.36289 h 6.773203 V 55.151008 Z m 13.850023,0 V 244.36289 h 59.272682 c 35.49392,0 58.44398,-22.15069 58.44398,-52.8409 0,-23.48468 -14.9437,-40.29819 -33.35784,-44.83501 15.74541,-5.33739 27.48762,-21.08203 27.48762,-40.56363 0,-25.232016 -15.37854,-44.747094 -43.08502,-49.731847 A 25.861649,19.817336 0 0 1 94.735268,74.821715 25.861649,19.817336 0 0 1 68.886859,55.151008 Z M 74.149837,86.10734 h 25.887473 c 17.88041,0 27.22054,9.073642 27.22054,23.48472 0,14.41102 -10.14178,23.75181 -26.95471,23.75181 H 74.149837 Z m 0,77.6599 h 30.423383 c 18.41413,0 28.02188,10.40848 28.02188,25.35324 0,15.21171 -10.67445,24.55192 -28.55484,24.55192 H 74.149837 Z" />
  </g>
</svg>
