<?xml version="1.0" encoding="UTF-8" standalone="no"?>
<!-- Created with Inkscape (http://www.inkscape.org/) -->

<svg
   width="210mm"
   height="297mm"
   viewBox="0 0 210 297"
   version="1.1"
   id="svg6235"
   inkscape:version="1.2.1 (9c6d41e410, 2022-07-14)"
   sodipodi:docname="B-loading.svg"
   xmlns:inkscape="http://www.inkscape.org/namespaces/inkscape"
   xmlns:sodipodi="http://sodipodi.sourceforge.net/DTD/sodipodi-0.dtd"
   xmlns:xlink="http://www.w3.org/1999/xlink"
   xmlns="http://www.w3.org/2000/svg"
   xmlns:svg="http://www.w3.org/2000/svg">
  <sodipodi:namedview
     id="namedview6237"
     pagecolor="#ffffff"
     bordercolor="#000000"
     borderopacity="0.25"
     inkscape:showpageshadow="2"
     inkscape:pageopacity="0.0"
     inkscape:pagecheckerboard="0"
     inkscape:deskcolor="#d1d1d1"
     inkscape:document-units="mm"
     showgrid="false"
     inkscape:zoom="0.72776573"
     inkscape:cx="227.40834"
     inkscape:cy="532.45156"
     inkscape:window-width="1920"
     inkscape:window-height="1002"
     inkscape:window-x="-8"
     inkscape:window-y="-8"
     inkscape:window-maximized="1"
     inkscape:current-layer="layer1" />
  <defs
     id="defs6232">
    <linearGradient
       inkscape:collect="always"
       id="linearGradient11232">
      <stop
         style="stop-color:#365969;stop-opacity:1;"
         offset="0"
         id="stop11228" />
      <stop
         style="stop-color:#8097a8;stop-opacity:1;"
         offset="1"
         id="stop11230" />
    </linearGradient>
    <linearGradient
       inkscape:collect="always"
       xlink:href="#linearGradient11232"
       id="linearGradient11234"
       x1="78.582548"
       y1="182.02636"
       x2="104.08951"
       y2="182.02636"
       gradientUnits="userSpaceOnUse"
       gradientTransform="matrix(4.1642087,0,0,4.1642087,-289.4008,-634.25739)" />
  </defs>
  <g
     inkscape:label="Layer 1"
     inkscape:groupmode="layer"
     id="layer1">
    <path
       id="path11225"
       style="font-weight:bold;font-size:50.8px;font-family:'Circular Std Bold';-inkscape-font-specification:'Circular Std Bold, Bold';fill:url(#linearGradient11234);fill-opacity:1;stroke:#ffffff;stroke-width:1.92591;stroke-linecap:round;stroke-linejoin:round;stroke-miterlimit:3.8;stroke-opacity:1;paint-order:fill markers stroke"
       d="m 112.78341,52.009647 c -0.088,0.04789 -0.17514,0.09786 -0.25822,0.152827 -0.18272,0.121178 -0.35287,0.259014 -0.5143,0.413089 -0.16141,0.154076 -0.31307,0.323976 -0.45621,0.507867 -0.14313,0.184058 -0.27888,0.383107 -0.40672,0.5939 -0.12784,0.211125 -0.2481,0.434327 -0.36366,0.669271 -0.11556,0.234862 -0.22512,0.48005 -0.33139,0.735941 -0.10631,0.256099 -0.20983,0.522358 -0.30986,0.796197 -0.20009,0.547676 -0.39002,1.128833 -0.58317,1.730145 -0.19313,0.601353 -0.39006,1.224027 -0.60038,1.854947 -0.21029,0.630919 -0.4349,1.270208 -0.68646,1.906624 -0.1258,0.318146 -0.25752,0.633918 -0.3981,0.948982 -0.14062,0.31523 -0.28912,0.629337 -0.4476,0.938238 -0.15845,0.308984 -0.32639,0.61268 -0.50569,0.912419 -0.17932,0.299824 -0.37137,0.594733 -0.57457,0.882271 -0.20317,0.287747 -0.41766,0.569081 -0.64772,0.841379 -0.23007,0.272339 -0.47385,0.535642 -0.73381,0.789784 -0.25997,0.254016 -0.53562,0.498747 -0.82848,0.731651 -0.29287,0.232779 -0.603,0.454107 -0.93178,0.662776 -0.1644,0.104105 -0.33393,0.205711 -0.50785,0.30357 -0.17394,0.09786 -0.35413,0.191137 -0.53798,0.281917 -0.18385,0.09078 -0.37178,0.176979 -0.56596,0.260263 -0.19413,0.08328 -0.39339,0.163237 -0.59823,0.239026 -0.20484,0.07537 -0.41463,0.147829 -0.63051,0.215289 -0.21587,0.06746 -0.437637,0.13034 -0.66494,0.189472 -0.227324,0.05913 -0.460266,0.113683 -0.699375,0.163653 -0.239109,0.04997 -0.484668,0.09703 -0.735953,0.137836 -0.251268,0.04164 -0.508696,0.07621 -0.772536,0.107436 -0.263844,0.02915 -0.534497,0.05622 -0.811275,0.07746 -0.276795,0.02082 -0.559919,0.03748 -0.850002,0.04955 -0.290079,0.01249 -0.587125,0.01666 -0.890895,0.01666 -0.607542,0 -1.186009,-0.0083 -1.736596,-0.02499 -0.550583,-0.01666 -1.072196,-0.04331 -1.568745,-0.07745 -0.496549,-0.03331 -0.968374,-0.07662 -1.413807,-0.127008 -0.445433,-0.05039 -0.865935,-0.109936 -1.263175,-0.176563 -0.397224,-0.06663 -0.771333,-0.139501 -1.1233,-0.221536 -0.351959,-0.08204 -0.680265,-0.171982 -0.989878,-0.269008 -0.309609,-0.09703 -0.599192,-0.200298 -0.869374,-0.311899 -0.270174,-0.111601 -0.521651,-0.229448 -0.755321,-0.355207 -0.233654,-0.125759 -0.449801,-0.259014 -0.649879,-0.398098 -0.20009,-0.139085 -0.383649,-0.284416 -0.553045,-0.436826 -0.1694,-0.15241 -0.325308,-0.312732 -0.466961,-0.477718 -0.141667,-0.165319 -0.270507,-0.336884 -0.387355,-0.514321 -0.116848,-0.177395 -0.221411,-0.359371 -0.316313,-0.548718 -0.09494,-0.189471 -0.180144,-0.384773 -0.256099,-0.585321 -0.07596,-0.200715 -0.142416,-0.408093 -0.202297,-0.619759 -0.05988,-0.211542 -0.112517,-0.427914 -0.15924,-0.649867 -0.04672,-0.221952 -0.08828,-0.448027 -0.124801,-0.680015 -0.03665,-0.231946 -0.06763,-0.46864 -0.09682,-0.710123 -0.05842,-0.483048 -0.106062,-0.985751 -0.152785,-1.504195 -0.04672,-0.518486 -0.09219,-1.052962 -0.150619,-1.603179 -0.05842,-0.550217 -0.128175,-1.115216 -0.221661,-1.693583 -0.04672,-0.288996 -0.09936,-0.582448 -0.159239,-0.877982 -0.05988,-0.295659 -0.128508,-0.593775 -0.204421,-0.89518 -0.07596,-0.301489 -0.161155,-0.605559 -0.256058,-0.91242 -0.09494,-0.306902 -0.199507,-0.615678 -0.316313,-0.927452 -0.116848,-0.3119 -0.245688,-0.626214 -0.387355,-0.942569 -0.141666,-0.31648 -0.295409,-0.635042 -0.464813,-0.955436 -0.1694,-0.320228 -0.352958,-0.642204 -0.553044,-0.966221 -0.20009,-0.323976 -0.416213,-0.649825 -0.649875,-0.976965 -0.116848,-0.163654 -0.241108,-0.324392 -0.37228,-0.482008 -0.131173,-0.157823 -0.270299,-0.312732 -0.415297,-0.464809 -0.144997,-0.151993 -0.2957,-0.301072 -0.454052,-0.44761 -0.158324,-0.146581 -0.323809,-0.291495 -0.494942,-0.432537 -0.04239,-0.03331 -0.08811,-0.06871 -0.131256,-0.103272 H 38.79629 V 198.73221 h 57.961816 c 28.135034,0 46.328584,-17.5576 46.328584,-41.88486 0,-18.61568 -11.84634,-31.94269 -26.44273,-35.5389 12.48097,-4.23079 21.78814,-16.71134 21.78814,-32.15389 0,-17.246075 -9.07185,-31.113681 -25.64869,-37.142039 z M 67.565233,73.285631 h 20.520659 c 14.173288,0 21.577248,7.192962 21.577248,18.616219 0,11.42322 -8.03924,18.8271 -21.36636,18.8271 H 67.565233 Z m 0,61.559829 H 91.68174 c 14.59637,0 22.21206,8.25038 22.21206,20.09672 0,12.05788 -8.4627,19.46189 -22.635989,19.46189 H 67.565233 Z" />
  </g>
</svg>
